<?xml version="1.0" encoding="utf-8"?>
<!DOCTYPE svg PUBLIC "-//W3C//DTD SVG 20010904//EN" "http://www.w3.org/TR/2001/REC-SVG-20010904/DTD/svg10.dtd">
<svg version="1.0" xmlns="http://www.w3.org/2000/svg" width="1957px" height="1623px" viewBox="0 0 1957 1623" preserveAspectRatio="xMidYMid meet">
 <g fill="#000000">
  <path d="M1201 1600 c-58.4 -0.5 -67 -0.8 -70.6 -2.2 -7.6 -3 -10.8 -5 -16.5 -10.5 -7 -6.6 -11.4 -15.7 -13.5 -27.7 -1.1 -6.3 -2.4 -10.2 -5 -14.4 -1.9 -3.1 -4.6 -9.3 -6.1 -13.7 -2.5 -7.6 -2.7 -9 -2.6 -26.5 0 -17.7 1.2 -30 5.7 -60.4 1.2 -8.3 1.2 -9.2 -0.5 -12 -1 -1.7 -3.3 -7.4 -5.1 -12.6 -3.2 -9.4 -3.3 -9.8 -3.2 -26.5 0 -16.5 0.2 -17.6 4.8 -38.5 2.6 -11.8 5 -25.1 5.3 -29.5 0.5 -8 0.5 -8.1 -6 -24.5 -6.7 -17 -15.7 -43.7 -15.7 -46.4 0 -0.9 -0.3 -1.6 -0.8 -1.6 -2.2 0 -31.4 5.5 -43.2 8.1 -29.7 6.5 -98.9 15.1 -146 18 -24.4 1.5 -82.6 0.6 -102 -1.5 -30.2 -3.4 -60.1 -8.8 -92.9 -16.7 -9 -2.1 -17.2 -3.9 -18.2 -3.9 -1 0 -5.6 2.4 -10.1 5.4 -9.9 6.5 -37.2 21 -55.5 29.6 l-13.3 6.3 5.2 6.6 c18.1 23.1 35.6 42.2 45.8 49.8 11.2 8.4 16.7 10.2 39.3 12.8 16.7 2 25.8 4.4 36.6 10 20.9 10.8 34.8 30 46.1 63.4 3.9 11.4 4.2 13.1 3.8 20 -1.1 15.7 -9.3 28.5 -22.8 35.4 -13.2 6.6 -13.5 6.7 -90.6 6.7 -42.2 0 -71.2 -0.4 -74.5 -1 -3 -0.6 -8.2 -2.4 -11.6 -4.1 -5.5 -2.7 -8.8 -5.8 -27.7 -26.2 -35.3 -38.3 -76 -77.7 -138.6 -134.3 -13.5 -12.2 -26.7 -24.4 -29.3 -27.3 -5.5 -5.9 -9.2 -13.1 -10.8 -21.3 l-1.1 -5.7 -4.6 3.2 c-2.5 1.7 -9.9 8.5 -16.5 15.1 l-11.8 11.8 0.6 19.7 c1.3 40.9 3.1 68.5 5.1 78.4 0.5 2.4 1 2.7 4.7 2.7 2.3 0 7.3 1.1 11.2 2.5 18.1 6.4 30.6 21 36.7 43.1 2 7.2 2.2 10.3 2.2 35.9 l0.1 28 -2.8 6 c-6.2 13.3 -20.9 23.8 -36.1 25.7 -3.9 0.4 -30.7 1.7 -59.6 2.8 -59.8 2.3 -55.7 2.6 -74.7 -5.8 -17.5 -7.8 -24 -11.8 -33.4 -21 -7.1 -6.7 -9.7 -10.1 -13.3 -17 -2.4 -4.8 -5.2 -11.6 -6.2 -15.2 -2.7 -9.7 -2.4 -32.1 0.9 -58.5 1.5 -11.5 3.1 -27.5 3.6 -35.5 1.4 -20.8 2.5 -54 1.8 -54 -0.4 0 -6.2 2.9 -12.9 6.5 -20.9 10.9 -35.4 14.8 -66.4 17.5 -26.1 2.4 -44.3 -0.8 -53.3 -9.3 -13.1 -12.4 -9.6 -35.9 6.5 -44 3.7 -1.9 15.4 -4.7 19.4 -4.7 6.4 0 27 -10.1 40.5 -19.8 5.4 -3.9 18.7 -14.9 24.7 -20.3 18.1 -16.6 37.4 -47.1 49.6 -78.4 12 -30.6 18.2 -57 20.8 -88.5 0.8 -10.2 2.6 -25.6 4 -34.2 1.4 -8.7 2.9 -21.9 3.4 -29.5 6.9 -98.8 25.2 -160.2 63.2 -211.3 8.2 -11 32.9 -35.9 43.8 -44.2 41.7 -31.5 104 -53.8 181.5 -64.7 51.1 -7.3 98.2 -10.4 207.5 -13.6 127.5 -3.8 197.9 -8.9 331.5 -24.1 l40 -4.6 24.5 -16.2 c47.2 -31.3 74.5 -47 100.5 -57.6 7.7 -3.1 8.4 -3.7 18.2 -14.9 12.6 -14.3 22.8 -27.4 32.2 -41 8.3 -12.1 8.5 -11 -3.7 -19.3 -17.2 -11.6 -34.4 -28.2 -47.6 -45.8 -11.5 -15.3 -22.2 -34.4 -42.9 -76.1 l-9.7 -19.6 -14.2 -13.4 c-17.7 -16.8 -20.1 -21 -20.6 -36 -0.4 -9.5 -0.3 -9.9 5.6 -27.5 4.1 -12 6.4 -20.8 7.1 -26.6 1.9 -16.2 8.6 -28.3 26.4 -47.8 18.8 -20.8 147.7 -146.8 154.7 -151.3 11.9 -7.6 30.9 -7.5 43.6 0.4 2.6 1.5 3.4 1.7 3.4 0.7 0 -0.8 1.7 -5 3.9 -9.4 2.8 -5.9 5.5 -9.5 10.4 -14.2 5.7 -5.4 9.2 -7.5 26.9 -16.2 29.3 -14.3 49.6 -20.7 77.5 -24.6 15.9 -2.3 72.5 -2.6 92.3 -0.6 38.2 3.9 66.9 10.9 96.7 23.5 17.6 7.5 28.9 16.2 34.1 26.4 l2.1 4.1 8.8 0.4 c11.3 0.5 19.9 4.3 27.6 12 5.5 5.5 18.1 23.7 30.7 44.3 4 6.6 23.3 33.4 43 59.5 74.4 99.1 93.9 129 102.6 157.5 2.4 8 2.7 10.6 2.7 23 0 17.9 -1.8 24.8 -11.7 45 -11.2 22.9 -26.6 48.6 -64.6 107.3 -23.7 36.7 -29.7 41.7 -50.5 41.7 -15.1 0 -19.3 -2.3 -39.8 -21.9 -8.9 -8.5 -22.3 -22 -29.7 -30 l-13.5 -14.5 -0.7 14.5 c-0.9 21.1 -3.9 37.6 -13.4 75.3 -10.3 40.8 -12.9 53.7 -14.4 70.9 -1.4 15.8 -0.3 38 3.6 72.4 l2.6 22.8 -2.1 31.2 c-5 74.6 -5.4 99 -1.9 122.6 2.7 18.5 2.9 39.5 0.5 50 -6.5 27.7 -22.3 53.8 -64.8 106.7 -7.9 9.9 -15 18.8 -15.7 19.8 -0.8 1 -4 12.5 -7.2 25.5 -3.3 13 -11.4 42.8 -18 66.2 -19.7 69 -25 90.8 -30.9 127 -4.1 25.1 -8.1 59.7 -8.1 70.1 0 10.2 1.6 27.2 3.3 34.9 1.5 6.4 1.7 6.6 20.4 13 6.5 2.2 16.5 6.4 22.3 9.2 9.7 4.8 11.4 6.1 22.6 17.2 11.3 11.4 12.4 12.8 18.1 24.1 3.3 6.7 8 17.9 10.3 25 3.8 11.7 4.2 13.7 3.8 20.6 -0.6 9.9 -4.8 19.3 -12.1 26.7 -6.4 6.6 -9.5 8.5 -18.9 12 l-7.3 2.7 -57 0.3 c-53.6 0.3 -101.3 -0.7 -123.3 -2.8 -12.3 -1.1 -20.4 -4.8 -28.9 -13.2 -8.9 -8.8 -12.3 -16.7 -13 -30.1 l-0.6 -10.2 -6.9 -7.4 c-14.7 -15.4 -19.5 -34.1 -15.3 -58.5 1.8 -10.5 8 -29.6 16.8 -51.7 l6.6 -16.5 -2.5 -7 c-5.1 -13.9 -11.3 -37.5 -13 -49 -1.8 -13.4 -1.4 -36.4 0.9 -49 l1.4 -7.2 -36.1 -0.4 c-19.9 -0.3 -36.2 -0.4 -36.4 -0.2 -0.2 0.1 0.7 5.1 2 11.1 2 9.4 2.3 13.5 2.3 31.8 -0.1 19.9 -0.2 21.5 -2.8 30.5 -8.8 30.3 -8.1 26.2 -8.1 52 0 25.5 1.6 49.6 3.9 57.5 l1.5 5 10.7 5 c9.4 4.3 11.9 6.1 18.9 13 17.4 17.1 22.7 37.5 20.5 78.5 -1.2 22.3 -3.8 29.6 -14 40.3 -9.9 10.4 -19.6 13.8 -38.6 13.5 -6.6 -0.1 -41.9 -0.5 -78.5 -0.8z m94.5 -23.4 c6.2 -2.9 9.7 -6.8 12.5 -14.3 1.8 -4.9 2.3 -8.6 2.7 -23.3 1.2 -40.1 -6.9 -55.8 -34.5 -66.6 -5.3 -2.1 -10 -4.6 -11.1 -6 -4.3 -5.4 -7.1 -17.8 -8.6 -37.2 -3.2 -43 -2.8 -64.6 1.5 -80.2 1.1 -4.1 3.5 -12.7 5.2 -19 5.5 -19.6 4.4 -38.3 -3.8 -68.8 -1.4 -5.1 -3.3 -11 -4.4 -13 -2.1 -4.3 -4 -26 -4.7 -55.4 -0.5 -17.2 -0.4 -17.8 2.6 -28.1 1.6 -5.8 3.6 -11.8 4.4 -13.4 2.9 -5.5 7.6 -22.1 10.7 -37.3 3.9 -19.5 5.4 -23 11.7 -26.9 4.4 -2.8 12.9 -6.1 19.4 -7.5 4.5 -1 17.2 -10 23.2 -16.5 3.1 -3.4 5.7 -6.6 5.7 -7.1 0 -0.6 2.5 -3.9 5.4 -7.4 3 -3.5 7.5 -9.6 10 -13.4 2.5 -3.9 5.4 -7.6 6.5 -8.1 1.1 -0.6 4.6 -1.1 7.9 -1.1 5.1 0 6.3 0.4 8.6 2.6 2.2 2.3 2.6 3.5 2.6 8.3 0 4.9 -0.6 6.7 -4.2 12.7 -2.3 3.8 -6.3 9.5 -8.9 12.6 -2.6 3.1 -6.3 8.1 -8.3 11 -8.6 13 -25.8 25.7 -40.6 30.2 -5 1.5 -9.9 3.5 -10.9 4.5 -1.2 1.2 -2.7 6.5 -4.5 16.1 -2.7 14.1 -8.1 33 -11.6 40 -0.9 1.9 -2.7 7.5 -4 12.4 -2.3 8.6 -2.3 9.2 -1.1 23 0.7 7.7 1.6 19.8 2 26.8 0.4 7.1 0.9 13 1.2 13.2 1.1 1.2 49.6 2.8 66.4 2.3 56.2 -1.8 91.5 -12.5 123 -37.2 14 -11 24.9 -23.3 37.6 -42.2 3.9 -5.8 16.9 -22.1 28.9 -36.2 43.2 -51.1 70.9 -85.5 87.8 -109.3 28.1 -39.7 34.3 -59.5 29.3 -93.7 -4 -27.2 -3.8 -54.8 1 -128.2 l2.2 -32.7 -2.1 -18.8 c-3.6 -32.3 -4.5 -46.9 -3.9 -69.4 0.6 -26.6 1.9 -34.1 13.2 -78.8 12.9 -50.7 16.1 -71.6 15.3 -99.3 l-0.4 -13.4 -4.9 -7.5 -4.9 -7.5 -11.6 5.7 c-24 11.9 -46.7 15.8 -93.4 15.8 -59.3 0 -101.7 -7.4 -133.6 -23.5 -13.5 -6.8 -20.1 -11.5 -31.7 -22.8 l-10.2 -9.9 -5.9 12 c-14.9 29.8 -55.9 91.6 -68 102.2 -9.2 8.1 -19 11.4 -32.1 10.8 l-8.7 -0.4 -4.6 7.1 c-9.6 14.6 -24.7 33.6 -42.1 52.7 -7.6 8.3 -8.4 8.9 -17.3 12.3 -22.6 8.8 -51.6 25.3 -98 56 -25 16.5 -29.8 19.3 -34 19.8 -16.6 2.2 -98.6 11.2 -129.4 14.1 -83.7 8.1 -135.3 11.2 -243.5 14.6 -85.5 2.7 -110.7 3.9 -152.5 7.6 -124.3 10.8 -203.4 39.1 -250.5 89.7 -43 46.1 -65.3 109.3 -73 206.2 -1.2 15.8 -7.5 150 -7.5 160.7 0 2.1 -1.4 3.5 -7.8 7.6 -10.6 6.9 -19.4 16.3 -23.7 25.4 -9.1 19.2 -8.7 36.6 1.6 82.9 1 4.5 1 14.4 0.1 49 -1.1 42.5 -2.6 64.9 -5.7 87.9 -0.8 6.3 -1.8 16.7 -2.1 23 -1 18.9 2.7 29.2 15.1 41.5 5.7 5.7 9.1 8 17.5 12.1 5.8 2.8 13.7 6.4 17.7 7.9 l7.2 2.8 53.5 -2.2 c48.2 -1.9 54.1 -2.3 59 -4.1 6.7 -2.6 13 -9 14.7 -15.2 1.6 -5.8 0.5 -38.9 -1.5 -48.2 -3.4 -15.1 -10.7 -25.4 -21.6 -30.5 -4.9 -2.3 -6.8 -2.6 -16.5 -2.6 l-11 0 -1.3 -3.9 c-4.6 -14.1 -8.1 -61 -8.2 -108.8 l0 -18.6 9 -10 c17.9 -20 36.4 -34.6 61 -48.2 6.5 -3.6 12.2 -7.8 18.1 -13.4 9.2 -8.8 17.2 -15.7 25.5 -22.2 2.9 -2.3 10.9 -9.5 17.7 -16 13 -12.4 23 -25.4 30 -38.9 2 -3.8 6.2 -10.4 9.3 -14.5 5.7 -7.5 10.4 -16.1 10.4 -19 0 -0.9 1.5 -3.9 3.2 -6.7 1.8 -2.8 4 -6.4 5 -8 0.9 -1.5 3.9 -6.6 6.7 -11.2 2.8 -4.6 5.1 -8.7 5.1 -9 0 -0.3 2.7 -5.2 5.9 -10.9 6 -10.6 9.6 -20.4 18.2 -50.2 9.6 -33.5 10.4 -59.1 2.1 -70.1 -1.5 -2 -4.6 -6.1 -6.9 -9.2 -2.4 -3.2 -8.9 -9.1 -15.1 -13.9 -6 -4.6 -13.4 -11 -16.3 -14.2 -5.4 -5.9 -5.4 -6 -5.4 -12.4 0 -5.7 0.3 -6.6 2.8 -8.8 2.3 -1.9 3.9 -2.4 8.6 -2.4 4.8 0 6.5 0.5 9.9 3 2.3 1.6 4.6 3.8 5.1 4.9 0.6 1 5.2 5 10.3 8.7 10.9 8 18.3 15.3 25.6 25.2 6.8 9.3 9.7 16.5 11.1 28.5 3 25.6 -0.3 45.6 -16 97 -4.2 13.7 -11.6 28.6 -27.2 54.5 -4.4 7.4 -8.6 15.2 -9.4 17.4 -2.3 6.8 -6.4 14.1 -11.3 20.3 -2.6 3.3 -6.6 9.5 -8.8 13.7 -5.1 9.5 -20 30.8 -25.5 36.5 l-4.1 4.3 12.4 -4.4 c6.9 -2.4 13.8 -4.9 15.3 -5.5 4.3 -1.7 11.5 -1.3 30.7 1.4 28.6 4.2 59 10.7 125 27 81.9 20.2 105.3 24.9 147 29.1 22.5 2.3 75.9 2.3 103 0 34.7 -2.9 99 -10.9 115 -14.2 36 -7.4 46.3 -9.4 51.8 -10 l6.2 -0.7 0 -15.1 c0 -19.4 -1.6 -46.5 -3.5 -58.6 -1.1 -6.6 -1.4 -15.7 -1.3 -29.8 l0.3 -20.2 -9.6 -18.8 c-16.1 -31.1 -22.8 -50.7 -21.6 -63.2 0.2 -3 2 -9.1 3.8 -13.5 3.5 -8.3 13 -25.8 18.1 -33.2 4 -6 9.8 -18.3 9.8 -21.1 0 -3.2 4.1 -6.9 8.5 -7.8 5.9 -1.1 10.6 0.6 13.3 4.6 2.1 3.1 2.3 4.4 1.9 10.5 -0.3 5.6 -1.2 8.6 -4.5 15.2 -2.2 4.6 -5.6 10.7 -7.5 13.5 -4.5 7 -15.2 26.3 -17.2 31.2 -1.9 4.5 -1.6 6.6 3.2 19.6 3.7 9.9 7.1 17.2 14.2 30 11.5 20.7 12.2 23.8 12 51.5 0 12.1 0.2 22.7 0.5 23.5 1.7 4.5 3.8 35.3 4.2 62 0.2 16.8 0.9 33 1.5 36 1.6 7.7 9 29.7 16 47.3 l5.9 14.7 0 13.4 c0 13.3 -0.3 16 -4.1 32.6 -4.4 19.7 -5.1 24.1 -5.6 35.1 -0.5 10.1 -0.3 12.6 1.6 19 1.3 4.1 3.8 10.2 5.7 13.7 1.9 3.4 3.4 7.7 3.4 9.4 0 1.7 -1.1 11 -2.5 20.7 -8 57.3 -7.5 68.5 3.2 82.9 1.8 2.4 3 6.3 4.4 14 1.1 5.9 2.2 11.4 2.4 12.3 1.2 3.8 6.7 10 10.7 12.1 4.1 2.2 5.7 2.3 30.3 2.8 14.3 0.3 48.5 0.7 76 0.8 l50 0.2 5 -2.4z m292.6 -34 c9.3 -2.8 14.5 -7 17.3 -13.8 2.3 -5.4 2 -8.2 -1.8 -19.4 -6.8 -20.2 -12.9 -30.7 -23.9 -41.1 -8.7 -8.2 -17.6 -13 -37.7 -20.3 -22.9 -8.3 -25.2 -9.7 -29 -18.3 -3.3 -7.5 -4.9 -16.8 -6.1 -37.2 -1.1 -17.6 -1 -20.4 1 -38 7.4 -63.3 13.5 -92.3 36.5 -173.4 6.4 -22.3 11.4 -40.6 11.3 -40.7 -0.7 -0.7 -24.1 28.3 -29 36 -17 26.2 -40.6 48.9 -65.2 63 -20.8 11.9 -50.4 21.1 -77.2 24.1 l-6.2 0.7 -1.1 5 c-2.1 10 -3.2 25.5 -2.7 37.3 0.6 14 4.4 30.1 12.6 53.5 2.8 8 5.1 15.2 5.1 16.1 0 0.9 -3.3 9.9 -7.3 20 -14.7 36.7 -19.1 52.6 -18.5 65.9 0.4 6.8 1 9.7 3.3 14.4 3 5.9 9.2 13.2 15.3 17.6 l3.4 2.5 0.9 12.5 c1.1 15.6 2.1 19.1 6.7 24.2 6.7 7.4 10.2 8.2 45.7 10.1 3.3 0.2 36.6 0.4 74 0.5 56 0.1 68.8 -0.1 72.6 -1.2z m-861.2 -63 c2.9 -0.8 7.1 -2.6 9.2 -4 4.4 -3 8.9 -10.8 8.9 -15.7 0 -4.9 -5.5 -20.2 -12.2 -33.8 -6.7 -13.6 -11.6 -19.5 -22.7 -26.9 -8.3 -5.5 -16.5 -7.9 -34.6 -10.3 -18.3 -2.3 -19.4 -2.5 -27.1 -5 -18.7 -6 -36 -22.2 -72.1 -67.4 -11.9 -14.9 -18.3 -23.8 -18.3 -25.3 0 -2 1.7 -3.1 12.3 -7.9 23.3 -10.8 63.8 -31.6 63 -32.3 -0.9 -0.9 -38.1 -10 -64.9 -15.9 -21.3 -4.8 -47 -9.5 -61 -11.2 l-10.2 -1.3 -17.3 6.3 c-35.3 12.8 -68.7 26.9 -86.1 36.4 -7.4 4.1 -8.8 5.2 -10.2 8.7 -2.3 5.8 -2 9.9 1.2 16.1 2.2 4.4 6.6 8.9 23.7 24.3 62.3 56.1 116.8 108.8 148.1 143.2 13.3 14.7 18 19.1 21.9 21 l5 2.4 69 0 c56.6 0 70 -0.3 74.4 -1.4z m-637.9 -126.1 c28 -2.8 41.6 -6.9 62.5 -18.7 4.3 -2.5 14.5 -9.7 14.5 -10.4 0 -0.2 -1.3 -5.9 -2.9 -12.6 -2.6 -10.6 -6.1 -30.8 -6.1 -34.8 0 -0.7 -5.7 4.5 -12.8 11.6 -7 7.1 -15.6 15.2 -19.2 17.9 -8.5 6.6 -21 15.4 -23.5 16.6 -1.1 0.6 -2.9 1.5 -4 2.2 -8.8 5.2 -11.9 6.8 -18 9 -3.8 1.3 -9.5 2.8 -12.5 3.2 -3 0.3 -8.1 1.4 -11.3 2.2 -4.6 1.3 -6.1 2.2 -6.8 4.2 -1.5 3.7 0.2 6.5 4.7 7.8 12.7 3.7 15.5 3.8 35.4 1.8z m1701.5 -805.8 c4.8 -2.5 7.2 -5.7 26.2 -35.2 58 -90 70.3 -113.7 70.3 -134.5 0 -26.5 -17.7 -55.7 -99.9 -164.8 -19.6 -26 -39.4 -53.4 -44.1 -61 -11.3 -18.1 -28.9 -44.2 -29.9 -44.2 -0.4 0 2.7 7.1 7 15.7 32.1 64 34 107 7.2 158.3 -4.2 8 -9.6 18.3 -12 22.9 l-4.4 8.5 0.6 15.5 c0.6 13.2 0.4 17.3 -1.3 27.1 -1.7 9.6 -1.9 14.2 -1.5 28 l0.6 16.5 -3.6 10.6 c-4.2 12.5 -11 26.5 -16.2 33.4 l-3.7 4.8 1.7 3.1 c8.4 14.7 22.4 32.5 41.8 53.4 15.7 16.8 39.8 40.1 43.7 42.2 5.7 3 11.4 3 17.5 -0.3z m-501.2 -16.1 c4.9 -2 8.2 -5.8 21.4 -24.3 23.2 -32.3 41.8 -62.2 50.1 -80.3 5.2 -11.4 8.5 -20.3 8.4 -22.6 -0.1 -1.2 -2.4 -9 -5.1 -17.5 -2.7 -8.5 -5.2 -16.5 -5.5 -17.9 -0.4 -1.4 -1.1 -10.8 -1.6 -21 -0.9 -20.7 -3.5 -36.3 -7.4 -44.3 -1.4 -2.9 -6.3 -11.1 -10.9 -18.3 -9.7 -15.2 -15.7 -28.3 -19.4 -42.2 -2.4 -8.8 -2.6 -11.5 -2.6 -29.2 -0.1 -27 3.6 -46.1 16.2 -85 5.5 -17 5.5 -16.7 -1.2 -20.1 -5.3 -2.7 -10.8 -2.7 -16.2 0.2 -8 4.3 -135.2 128.4 -154.7 150.9 -12.7 14.7 -17.3 23.6 -18.8 36.5 -0.8 6 -3.1 14.8 -7.2 27.2 -8.2 24.5 -8.6 22.8 11.5 42.3 l14.9 14.5 12.5 25 c33.7 67.4 48.3 87.2 80.6 109.7 4.9 3.5 10.6 8 12.6 10.2 6.4 6.9 15.1 9.3 22.4 6.2z m314.4 -69 c25.7 -3.9 43.3 -11.3 57.1 -24 2.4 -2.2 4.8 -4.8 5.3 -5.9 0.9 -1.6 0.8 -1.7 -1 -0.8 -1.1 0.6 -5 1.1 -8.6 1.1 -5.8 0 -7.8 -0.6 -14.9 -4 -7.6 -3.7 -22.4 -13.5 -32.6 -21.5 -13.1 -10.3 -17.6 -13.3 -29.3 -19 -7 -3.5 -14.8 -6.7 -17.3 -7.1 -10.9 -1.6 -27.1 3.7 -39.4 13 -5.9 4.5 -23.9 16.5 -36.6 24.4 -7 4.4 -15.5 8.4 -23.9 11.3 -6.2 2.1 -8.8 2.4 -22 2.4 -10.8 0 -15.7 -0.4 -17.4 -1.3 -5.3 -3.1 -0.5 1.1 7.4 6.3 21.5 14.3 51.5 22.4 98 26.5 15.3 1.3 63.1 0.4 75.2 -1.4z m-192.7 -42.8 c-2.3 -3.8 -2.8 -13.6 -0.8 -15.6 2.2 -2.2 7.8 -1.3 14.3 2.3 11.4 6.4 21.4 7.3 33.2 3.1 9.9 -3.5 37.9 -20.5 52.8 -32 9.2 -7.2 24.5 -17.6 29.2 -20 1.8 -0.9 4.7 -1.6 6.5 -1.6 1.8 0 4.4 -0.3 5.7 -0.7 2.1 -0.5 2.1 -0.7 -1.3 -1.8 -5.3 -1.8 -13.9 -7.3 -20.9 -13.2 l-6.2 -5.2 -0.6 -7.1 c-0.4 -5.6 -1.1 -7.9 -3.5 -11.2 -4 -5.7 -8.8 -8.8 -13.5 -8.8 -8.1 0 -10.2 -2.5 -12 -14.3 -2.1 -13.4 0.8 -26.5 8.1 -36.2 9.4 -12.7 19.9 -20.1 31.5 -22.5 2.8 -0.6 14.2 -1.3 25.5 -1.6 21.9 -0.7 32.5 0.5 41.4 4.5 5.4 2.4 19.3 13 24.6 18.7 11.9 12.9 14.1 33.7 5.4 51.9 -1.3 2.8 -2.7 3.9 -6.6 5.2 -5.2 1.9 -10.5 6.3 -12.5 10.4 -0.6 1.3 -2.1 4.4 -3.2 6.9 -3.9 8.3 -25.7 22.3 -37.1 23.7 l-5.5 0.7 5.7 0.8 c7.3 0.9 10.9 2.8 18 9.4 3.2 2.9 9.1 7.8 13.3 10.9 4.1 3.1 10.4 8.3 14 11.6 3.6 3.2 8.2 6.7 10.2 7.8 2.1 1.1 6.5 4 9.8 6.5 6.6 5.1 14.8 8.6 19.9 8.6 1.8 0 5.3 -0.7 7.6 -1.5 8.2 -2.9 12 -1.6 12 4 l0.1 3 1.4 -2.5 c0.8 -1.4 2.8 -6.7 4.5 -11.8 3 -9.2 3 -9.4 2.4 -25 -0.6 -13.8 -0.4 -17.1 1.5 -27.2 2.1 -10.5 2.2 -12.3 1.1 -21.3 -2.2 -17.7 -0.3 -25.2 12.5 -48.2 14 -25.2 18.8 -38.5 21.4 -58.7 2.6 -20 -4 -46.3 -19.9 -79.5 -7.2 -14.9 -26.2 -49.7 -31.3 -57.1 -5.3 -7.8 -18.2 -14.3 -46.7 -23.7 -25.4 -8.3 -55.4 -13 -91 -14.4 -44.4 -1.7 -76.8 2.4 -106.5 13.3 -15.4 5.7 -42.1 19.2 -47.1 23.8 -5 4.6 -6.2 7.5 -17.8 41.6 -27.1 80 -26.9 105.1 1.1 148 8.7 13.4 10.5 16.8 13.2 24.9 3.2 9.5 5.1 23.1 6.1 42.8 0.7 14.8 1.3 19.4 3.4 26 1.3 4.4 4.2 13.7 6.4 20.7 2.2 7 4.7 14 5.7 15.5 2 3.1 15.5 19.3 16.1 19.3 0.2 0 -0.5 -1.5 -1.6 -3.2z"/>
  <path d="M1653.5 217.2 c-5.3 -1.9 -18.6 -10.5 -22.2 -14.3 -3.2 -3.6 -4.4 -7.5 -5 -17.2 -1.1 -16.9 3.8 -26.9 14.9 -30.2 10.2 -3 18.6 -1.6 30.3 5.3 9.9 5.8 15 10.8 19.4 19.1 8.5 16.1 3.5 33.2 -11 37.5 -7.1 2.1 -20.1 2 -26.4 -0.2z m-9.7 -44.9 c-0.9 -0.8 -2.1 -1.2 -2.7 -0.9 -1.7 1.1 -1.3 4.4 0.7 5.5 2.5 1.4 4.2 -2.3 2 -4.6z"/>
  <path d="M1400 210.1 c-7.5 -1.5 -12.2 -5.6 -16.5 -14 -1.4 -2.7 -1.6 -5.2 -1.3 -11.5 0.8 -14 6.2 -20.8 21.8 -27.7 9.1 -4 9.9 -4.2 20 -4.3 16.7 -0.2 22.3 3.1 29.9 17.3 9.3 17.5 -3.7 36.1 -27.9 40 -7.2 1.2 -20.6 1.3 -26 0.2z m2.8 -34.6 c-1.4 -1.5 -2.2 -1.7 -3.6 -0.9 -2.7 1.8 -2.6 4.1 0.5 5.7 2.5 1.4 2.8 1.3 3.9 -0.7 0.9 -1.7 0.8 -2.5 -0.8 -4.1z"/>
 </g>
 <g fill="#444544">
  <path d="M1387.6 1516.4 c-1 -2.5 -0.7 -3.4 0.9 -3.4 0.9 0 1.5 0.9 1.5 2.5 0 2.8 -1.5 3.4 -2.4 0.9z"/>
  <path d="M512.1 1415.7 c-16.1 -16 -31.3 -31 -33.7 -33.1 -2.5 -2.2 -4 -4.2 -3.5 -4.6 0.6 -0.3 -1.2 -3 -4 -6 -2.8 -3 -6.2 -7.1 -7.7 -9 -1.4 -1.9 -6 -7.1 -10.2 -11.5 -8.3 -8.9 -22.3 -27.8 -25.1 -34 -6.2 -13.9 -4.7 -48.2 2.8 -65.8 1.4 -3.3 1.5 -4 0.3 -4.7 -0.8 -0.5 -1.2 -1.1 -0.9 -1.4 1.2 -1.2 41.6 -16.7 58.4 -22.4 l9 -3.1 16 2.4 c19.8 2.9 33.8 5.5 57 10.6 22.5 5 67.6 15.9 69.3 16.8 2 1.1 -28.3 17.1 -63 33.2 -8.4 3.9 -15.6 7.3 -16 7.7 -0.4 0.4 2.4 4.6 6.2 9.4 3.7 4.8 7.4 10.4 8 12.5 0.7 2 2.1 5 3 6.7 5.2 9.1 2.2 62.2 -4.4 76.9 -1.3 2.9 -5.2 9 -8.7 13.6 -6.6 8.6 -15.7 22 -20.7 30.3 l-2.9 4.8 -29.2 -29.3z"/>
  <path d="M1204.5 1421.8 c-3.3 -2.7 -8.5 -7.4 -11.5 -10.3 -3 -2.8 -7.1 -6.3 -9 -7.6 -8.5 -5.7 -12 -9.3 -12 -12.2 0 -2.9 -10.7 -19.6 -14.6 -22.8 -3.3 -2.7 -13.4 -19.1 -14.9 -24.2 -5.7 -18.7 -8.8 -47.4 -6.6 -61.2 0.5 -3.8 1.5 -10.1 2.1 -14 1.4 -9.4 3.4 -15.3 8.6 -25.7 3 -6.2 5.6 -13.7 8.5 -25.5 3.7 -14.8 4.3 -18.5 4.6 -30.8 0.4 -12.1 0.1 -15.6 -2 -26 -1.4 -6.6 -4.2 -16.5 -6.2 -22 -10.7 -29.4 -14.7 -42.2 -15.2 -49 -0.3 -4.2 0.4 -13.3 1.6 -23 1.2 -8.8 2.1 -18.6 2.1 -21.9 0 -7.9 2.6 -24.6 6 -39.1 1.6 -6.6 4.8 -20.1 7.1 -30 12.5 -54 39.7 -100.9 66.5 -114.5 3.8 -1.9 13.8 -7.6 22.4 -12.6 8.5 -5 18.2 -10.5 21.5 -12.3 28.2 -15.6 66.4 -56 82.6 -87.6 3.4 -6.6 7.7 -14.5 9.5 -17.5 1.9 -3 6.7 -13.1 10.8 -22.5 4 -9.3 10.4 -23.2 14 -30.8 3.7 -7.6 8 -17 9.5 -21 6.1 -15.1 8.1 -18.7 10.5 -18.7 2.2 0 6.7 4.6 14.6 15 11.3 14.9 38.4 40.7 47.9 45.4 7.3 3.8 23.1 6.9 31.6 6.4 14.8 -1 44.5 -16.7 58 -30.8 2.8 -2.9 8.6 -8 13 -11.3 4.4 -3.4 17 -15.2 28.1 -26.3 16.5 -16.5 21.2 -21.9 26.3 -30 3.4 -5.4 10.7 -17.1 16.3 -25.9 12.2 -19.3 17.8 -30.8 21.2 -43.5 4.7 -17.8 5.8 -32.1 4.2 -56.6 l-0.9 -14 3.4 -2.2 3.3 -2.1 2.2 3.9 c1.2 2.1 3.7 6 5.5 8.7 l3.4 4.8 0.3 15.5 c0.7 30.3 -2.2 49.7 -15.3 101.2 -11 43.5 -12.5 52.3 -13.2 76.8 -0.6 20.4 0.2 34 3.9 67.7 l2.2 20.2 -2.2 34.3 c-4.9 75 -5.1 97.9 -1.1 125.2 6.2 41.8 -2.5 63.8 -48.4 122.9 -12.2 15.8 -47.1 58.4 -54.1 66.2 -4.3 4.8 -4.5 4.9 -4.6 2.4 0 -1.5 1.4 -8.7 3.1 -16 5 -21.3 5.6 -25.4 7.3 -44.4 1.8 -21.2 2.2 -114.6 0.5 -131 -1.2 -11.8 -4.2 -24.9 -7.5 -32.3 -2.4 -5.4 -14.8 -22.2 -16.4 -22.2 -0.4 0 -1.1 2.4 -1.5 5.3 -0.7 5.7 -5.6 23.3 -8.4 30.6 -1 2.5 -4 13.8 -6.6 25.1 -7.3 31.8 -11.1 44.3 -17.4 58.5 -3.2 7.1 -7.7 18.2 -10.1 24.5 -2.4 6.3 -6.2 14.4 -8.5 18 -2.3 3.6 -5.3 8.5 -6.5 11 -2.7 5.3 -18.6 27.7 -20 28.2 -0.6 0.2 -5.2 4.4 -10.3 9.4 -5 5 -13.2 12.1 -18.2 15.8 -4.9 3.7 -13 9.7 -17.8 13.4 -21.3 16.3 -59.6 37 -74.6 40.3 -2.5 0.5 -8 2.1 -12.1 3.4 -8.8 2.8 -28 8.6 -36.3 11.1 -3.1 0.9 -5.9 1.5 -6.1 1.3 -0.2 -0.2 1.6 -6.2 3.9 -13.2 2.4 -7.1 5.6 -19.4 7.1 -27.4 1.8 -9.9 3.3 -15.2 4.5 -16.4 1 -1 5.9 -3 10.9 -4.5 14.8 -4.5 32 -17.2 40.6 -30.2 2 -2.9 5.7 -7.9 8.3 -11 7.5 -9 13.1 -19 13.1 -23.3 0 -5.1 -3.9 -8.9 -9.2 -8.9 -5.6 0 -7.3 1.3 -12.4 9.2 -2.5 3.8 -7 9.9 -10 13.4 -2.9 3.5 -5.4 6.8 -5.4 7.4 0 0.5 -2.6 3.7 -5.7 7.1 -6 6.5 -18.7 15.5 -23.2 16.5 -6.5 1.4 -15 4.7 -19.4 7.5 -6.3 3.9 -7.8 7.4 -11.7 26.9 -3.1 15.2 -7.8 31.8 -10.7 37.3 -0.8 1.6 -2.8 7.6 -4.4 13.4 -3 10.2 -3.1 11.1 -2.6 26.2 0.8 28.5 2.7 49.2 4.7 53.3 2.3 4.4 6.1 18.3 9.2 33.3 1.7 8.6 2.2 14.3 2.2 26 0 13.8 -0.2 15.9 -3.2 26.5 -1.7 6.3 -4.1 14.9 -5.2 19 -1.2 4.1 -2.4 11.3 -2.7 16 -0.4 5.5 -1.3 9.9 -2.6 12.5 -3.1 6.2 -10.4 16.9 -15.1 22.2 -2.3 2.6 -7.1 8.6 -10.5 13.3 -8.2 11.1 -9.4 12 -14.5 11.9 -3.4 0 -5.1 -0.8 -10.1 -5.1z"/>
  <path d="M723 1408.4 c0 -2.7 1.4 -2.5 3 0.7 0.9 1.6 0.7 1.9 -1 1.9 -1.5 0 -2 -0.7 -2 -2.6z"/>
  <path d="M1493.4 1404.1 c-5.4 -2.5 -38.2 -24.1 -46.4 -30.6 -3.6 -2.9 -11.3 -9.8 -17.2 -15.5 -10.3 -9.8 -10.7 -10.4 -11.3 -15.4 -0.3 -2.8 -1.3 -9.1 -2 -14.1 -0.8 -4.9 -1.9 -20.9 -2.5 -35.5 -0.6 -14.6 -1.3 -28.8 -1.7 -31.7 l-0.6 -5.2 4.4 -1.1 c25.6 -6.4 53.7 -21.5 73.3 -39.3 l7.2 -6.4 1.8 4.4 c2.5 5.9 8.6 38.6 11.1 59.3 0.4 3 1.5 9.4 2.6 14.2 1 4.8 1.9 10.4 1.9 12.3 0 2.4 0.5 3.5 1.5 3.5 1.8 0 1.9 -1.4 -0.5 14.3 -3.3 22 -7 55.4 -7 63.5 0 6.8 -0.7 10.7 -4.6 24 -0.5 1.8 -5.3 1.4 -10 -0.7z"/>
  <path d="M672 1387.5 c0 -1.6 0.9 -1.9 3.4 -0.9 2.5 0.9 1.9 2.4 -0.9 2.4 -1.6 0 -2.5 -0.6 -2.5 -1.5z"/>
  <path d="M59.5 1355.8 c-8.8 -2.1 -11.7 -3.2 -12.6 -4.9 -1.2 -2.3 -1.1 -7 0.1 -8.9 0.9 -1.3 1.1 -1.3 1.9 -0.1 0.7 1.1 2.5 1.3 7.8 0.8 3.7 -0.4 13.1 -1.1 20.8 -1.7 25.8 -2 54.6 -9.4 66.8 -17.2 6.4 -4.1 17.7 -15.2 17.7 -17.5 0 -2.4 2 -1.3 2.6 1.5 0.3 1.5 1.2 5.2 2 8.3 2.3 9.3 2 10.3 -3.8 14.5 -6.2 4.6 -10.6 7.1 -21.3 12.3 -15.3 7.4 -26.3 10.1 -50.5 12.6 -16.2 1.6 -25.5 1.7 -31.5 0.3z"/>
  <path d="M606.7 1353.3 c-0.4 -0.3 -0.7 -1.7 -0.7 -3.1 0 -2.1 0.2 -2.3 1.6 -1.2 0.8 0.8 2 2.2 2.5 3.2 0.8 1.4 0.6 1.8 -0.9 1.8 -1 0 -2.2 -0.3 -2.5 -0.7z"/>
  <path d="M231.7 1316.8 c-1.9 -6.8 -2.9 -35.9 -1.8 -53.3 0.7 -12.8 0.8 -13.2 5.4 -22.5 5.1 -10.4 8.8 -16.5 15.7 -26 4.8 -6.6 11.4 -10.8 23 -14.5 8.6 -2.8 25.7 -11.7 34.5 -18 13.8 -9.8 26.5 -23.2 37.1 -39.1 11.2 -17 24.4 -32.6 34.5 -41.1 6.8 -5.7 26 -20.5 55.9 -43 13.5 -10.3 31.8 -28.2 41.5 -40.7 15.9 -20.5 29.7 -47.8 36.5 -72.1 1.2 -4.4 2.4 -8.5 2.7 -9.2 0.3 -0.7 -0.2 -1.3 -1.1 -1.3 -0.9 0 -1.6 -0.8 -1.6 -2 0 -1.8 0.3 -1.9 2.1 -1 5.7 3.1 19.9 20.2 22.5 27.1 1.1 2.9 1.8 8.8 2.1 16.9 0.7 20 -2.8 37.4 -15.8 78.2 -2.7 8.4 -6.1 16.1 -10 23 -3.2 5.7 -5.9 10.6 -5.9 10.9 0 0.3 -2.3 4.4 -5.1 9 -2.8 4.6 -5.8 9.7 -6.7 11.2 -1 1.6 -3.2 5.2 -4.9 8 -1.8 2.8 -3.3 5.8 -3.3 6.7 0 2.9 -4.7 11.5 -10.4 19 -3.1 4.1 -7.3 10.7 -9.3 14.5 -7 13.5 -17 26.5 -30 38.9 -6.8 6.5 -14.8 13.7 -17.7 16 -8.3 6.5 -16.3 13.4 -25.5 22.2 -5.9 5.6 -11.6 9.8 -18.1 13.4 -24.6 13.6 -43.1 28.2 -61 48.2 l-9 10 0 6.9 c0 7.5 0.1 7.5 -6.5 5.9 -2.2 -0.5 -14.3 -1 -27 -1 -18.5 -0.1 -24.1 0.2 -28.5 1.5 -3 0.9 -7.1 1.9 -9.2 2.2 l-3.6 0.5 -1.5 -5.4z"/>
  <path d="M806.6 1259.9 c-44.6 -2.5 -72.8 -7.7 -164.6 -30.4 -34.4 -8.5 -72.6 -17.5 -85 -19.9 -22.1 -4.5 -54.5 -9.6 -60.5 -9.6 -1.7 0 -12.3 3.3 -23.5 7.4 -11.3 4.1 -21.4 7.7 -22.5 8.1 -1.1 0.4 2.1 -3.3 7.2 -8.2 9.9 -9.4 23.2 -27.4 30.5 -41.1 2.2 -4.2 6.2 -10.4 8.8 -13.7 4.9 -6.2 9 -13.5 11.3 -20.3 0.8 -2.2 5 -10 9.4 -17.4 15.6 -25.9 23 -40.8 27.2 -54.5 15.3 -50.1 18.4 -68.7 15.7 -95.5 -0.5 -5.2 -0.4 -7.8 0.3 -7.8 1.1 0 8.1 7.3 16.5 17.2 3.4 4 9.9 9.8 16.4 14.5 5.9 4.2 14.2 10.6 18.5 14 4.3 3.5 10.1 7.5 13 8.9 2.8 1.5 10.8 5.9 17.7 9.9 30.6 17.6 38.4 20.8 71 29.2 13.6 3.5 20.7 4.5 46.5 6.3 7.7 0.5 20.5 1.4 28.3 2 9.6 0.6 18.9 0.7 28.1 0 7.6 -0.5 19.5 -1 26.4 -0.9 7 0 13 -0.2 13.5 -0.4 0.4 -0.3 5.2 -1 10.7 -1.7 9 -1 18.6 -2.8 49.5 -9.1 5.2 -1.1 13 -3.1 17.5 -4.5 4.4 -1.4 12.3 -3.9 17.5 -5.6 18 -5.7 21.6 -7.1 40.7 -16.6 16.9 -8.4 30.1 -16.7 35.3 -22.2 0.8 -0.8 4.2 -3.8 7.5 -6.5 3.3 -2.7 9.3 -8 13.4 -11.7 7.4 -6.9 12.4 -9.1 10 -4.5 -0.7 1.2 -2.4 4 -3.9 6.2 -9.1 13.4 -20.3 36.5 -21.6 44.3 -1.6 9.8 5.9 31.2 21.5 61.4 l9.6 18.8 0 23.2 c0.1 13.3 0.6 26.1 1.3 29.8 0.8 4.8 3.1 33.6 3.2 41.2 0 0.4 -3.5 1.8 -7.7 3.2 -11.2 3.5 -13.5 4.6 -26.5 12.5 -6.4 3.8 -15 8.8 -19 10.9 -43.7 23.3 -44.3 23.5 -69.9 26.6 -55.1 6.8 -99 8.8 -139.3 6.5z"/>
  <path d="M1776.5 552.1 c-6.1 -1.5 -9.5 -4.4 -30.5 -25.3 -22.7 -22.6 -35.8 -37.2 -47 -52.2 -7 -9.5 -16 -23.7 -16 -25.3 0 -0.4 1.9 -3.3 4.1 -6.3 5.7 -7.5 12.3 -21.1 16.6 -33.9 l3.6 -10.6 -0.7 -16 c-0.5 -13.9 -0.3 -17.7 1.5 -28 1.8 -10 2 -13.8 1.3 -23 -1.4 -20.3 -2.9 -15.4 15.8 -51.5 7.7 -14.8 13.6 -30.2 16.2 -42.2 0.8 -3.4 1.7 -3.5 3.6 -0.6 9.7 15.2 18.2 30.4 22.1 39.4 2.6 6.1 5.8 12.9 7.1 15 1.4 2.2 3.3 6.2 4.3 8.9 1 2.8 2.6 7.3 3.6 10.1 1.9 5.2 3.9 26.7 3.9 41.7 0 4.8 0.9 11.6 2.5 18 6.7 27.5 8.3 59.3 4.6 88.3 -3.8 28.9 -6.1 49 -6.1 53.6 0 4.8 -3.5 31.6 -4.6 35.6 -0.5 1.8 -0.2 2.2 1.5 2.2 2.5 0 2.8 1.5 0.5 2.4 -1.9 0.7 -3.9 0.6 -7.9 -0.3z"/>
  <path d="M1279.5 535.3 c-0.6 -0.5 -1.1 -1.9 -1.2 -3.3 0 -1.4 -0.6 -5.4 -1.2 -9 -0.6 -3.6 -1.1 -10.6 -1.1 -15.6 0 -5.4 -0.7 -12 -1.9 -16.5 -1 -4.1 -2.4 -10.1 -3.1 -13.4 -1.3 -6.6 -6.5 -27 -11.1 -44 -3.3 -11.9 -4.8 -19.5 -7.8 -38 -1.1 -6.6 -2.8 -14.5 -4 -17.5 -1.1 -3 -3.6 -11.8 -5.5 -19.5 -7.8 -31.2 -8.6 -37.7 -6.7 -52.5 1 -7.5 3.6 -12.3 23.2 -42.7 4.1 -6.5 8.6 -13.8 10 -16.3 3.9 -7.4 14.9 -24.2 18.9 -29 2.1 -2.5 5.1 -6.7 6.9 -9.4 3.3 -5.3 23.6 -26.6 25.3 -26.6 0.6 0 0.8 1.2 0.5 3 -1.8 8.5 -2.9 26.6 -2.3 36.4 1.4 21.2 7.9 39.5 22.3 62 4.6 7.2 9.5 15.4 10.9 18.3 3.9 8 6.5 23.6 7.4 44.3 0.5 10.2 1.2 19.6 1.6 21 0.3 1.4 2.8 9.3 5.4 17.5 6.7 21.1 6.6 20.3 3.4 28.8 -9.5 24.9 -26.7 54.1 -56.7 96 -13 18.3 -16.6 22.3 -21.2 24.2 -4.1 1.7 -10.8 2.7 -12 1.8z"/>
  <path d="M1363 470.1 c1.6 -3.2 3 -3.4 3 -0.7 0 1.9 -0.5 2.6 -2 2.6 -1.7 0 -1.9 -0.3 -1 -1.9z"/>
  <path d="M1370 458.1 c1.6 -3.2 3 -3.4 3 -0.7 0 1.9 -0.5 2.6 -2 2.6 -1.7 0 -1.9 -0.3 -1 -1.9z"/>
  <path d="M1683 396.5 c0 -1.9 0.5 -2.5 2.1 -2.5 1.5 0 1.9 0.4 1.5 1.6 -0.3 0.9 -0.6 2 -0.6 2.5 0 0.5 -0.7 0.9 -1.5 0.9 -0.9 0 -1.5 -0.9 -1.5 -2.5z"/>
  <path d="M1386 380.8 c-5.3 -14.5 -6.1 -19 -7 -37.3 -1 -19.7 -2.9 -33.3 -6.1 -42.8 -2.7 -8.1 -4.5 -11.5 -13.2 -24.9 -11.8 -18.1 -18.2 -32.6 -20.2 -46 -0.6 -4 -0.5 -4.8 0.9 -4.8 0.9 0 1.6 0.7 1.6 1.6 0 2.9 12.9 14.5 19.4 17.4 8.1 3.7 14 4.8 30.9 6.1 7.8 0.5 19.8 1.5 26.6 2.2 l12.3 1.2 2.3 6 c1.2 3.3 3.4 8.4 4.9 11.2 3.6 7.3 3.4 10.8 -1.2 17.4 -9.7 13.9 -21.2 34.5 -26.6 47.8 -2.8 7 -7.6 32.3 -7.6 40.2 l0 5 -6.5 3 c-3.5 1.6 -6.9 2.9 -7.3 2.9 -0.5 0 -2 -2.8 -3.2 -6.2z"/>
  <path d="M1683.2 358.8 c-0.6 -1.8 -1.8 -6.5 -2.6 -10.3 -2.2 -10.5 -7 -22.8 -13 -33.8 -8.4 -15.2 -12.6 -20 -23.7 -26.7 l-4.6 -2.8 -0.7 -11.1 c-0.7 -11.5 -0.2 -16 1.8 -16.2 0.6 -0.1 5.4 -0.4 10.6 -0.8 19.1 -1.5 39.9 -6.1 49.2 -10.7 5.3 -2.7 17.4 -13.5 18.3 -16.5 0.8 -2.6 3.5 -2.4 3.5 0.2 0 3.2 -3.7 16.7 -6.3 23.4 -4.5 11 -6.4 14.9 -14.2 29 -12.9 23.3 -14.2 28.1 -12.4 45.5 1.1 10.2 1 12.7 -0.5 21 -2.8 14.8 -3.2 15.7 -5.4 9.8z"/>
 </g>
 <g fill="#525252">
  <path d="M489.4 1392.9 c-4 -4.3 -56.4 -52.6 -82.4 -76 -17.6 -15.9 -22 -20.4 -24.2 -24.8 -3.3 -6.4 -3.7 -13.8 -1.2 -20.1 1.4 -3.5 2.8 -4.6 10.2 -8.7 8.2 -4.5 36.3 -17.3 41 -18.8 1.8 -0.5 2.2 -0.2 2.2 1.5 0 1.2 -0.9 4.2 -1.9 6.8 -7.8 18.8 -9.3 48.9 -3.2 62.7 2.8 6.3 16.8 25.2 25.2 34 4.1 4.4 8.2 9 9.1 10.2 1.3 2 7.3 8.8 20.9 23.8 7.9 8.6 11.9 17.4 4.3 9.4z"/>
  <path d="M1166.8 1388.3 c-6.7 -7 -24.4 -29.3 -32.3 -40.8 -3.7 -5.5 -10.1 -14.4 -14.2 -19.7 -5.4 -7.1 -7.3 -10.5 -7.3 -12.7 0 -1.7 -2.7 -9.7 -5.9 -17.8 -7 -17.6 -14.4 -39.6 -16 -47.3 -0.6 -3 -1.3 -19.2 -1.5 -36 -0.4 -27.2 -2.5 -56.8 -4.3 -62.5 -0.4 -1.1 -0.6 -11.7 -0.4 -23.5 0.2 -27.1 -0.5 -30.2 -12 -51 -7.1 -12.8 -10.5 -20.1 -14.3 -30.4 -4.6 -12.3 -5.4 -17.8 -3.2 -23.1 2.1 -5 12.7 -24.2 17.3 -31.3 6.2 -9.5 11.5 -21.3 12 -26.6 0.5 -6 -2 -11 -6.5 -12.7 -5.5 -2.1 -13.2 2.3 -13.2 7.4 0 1.1 -1.1 4.5 -2.5 7.6 -2.6 5.8 -9.1 12.4 -24.5 25.1 -3.6 3 -7.2 6.1 -8 7 -5 5.5 -18.3 13.8 -35.3 22.2 -19.1 9.5 -22.7 10.9 -40.7 16.6 -5.2 1.7 -13.1 4.2 -17.5 5.6 -4.5 1.4 -12.3 3.4 -17.5 4.5 -38.4 7.9 -39.3 8 -65.5 11.1 -3.8 0.5 -8.9 0.6 -11.1 0.3 -2.3 -0.3 -12.4 0 -22.5 0.6 -13.5 0.9 -22.3 0.9 -32.9 0.1 -8 -0.6 -20.8 -1.5 -28.5 -2 -25.8 -1.8 -32.9 -2.8 -46.5 -6.3 -32.6 -8.4 -40.4 -11.6 -71 -29.2 -6.9 -4 -14.9 -8.4 -17.7 -9.9 -2.9 -1.4 -8.7 -5.4 -13 -8.9 -4.3 -3.4 -12.6 -9.7 -18.4 -14 -6 -4.3 -13 -10.4 -16 -13.9 -2.9 -3.5 -7.4 -8.6 -10.1 -11.4 -3.3 -3.4 -5.8 -7.4 -7.8 -12.3 -5.5 -13.4 -17.7 -27.7 -33.8 -39.5 -5.1 -3.7 -9.7 -7.7 -10.3 -8.7 -0.5 -1.1 -2.8 -3.3 -5.1 -4.9 -8.2 -6 -17.3 -2.6 -17.3 6.2 0 4 0.6 5.1 5.4 10.4 3 3.2 9 8.7 13.5 12.2 4.5 3.5 8.2 6.9 8.4 7.6 0.4 1.9 -4.4 18.2 -8.4 28.8 -7.3 19.1 -18.7 39.7 -30.9 55.4 -9.7 12.5 -28 30.4 -41.5 40.7 -29.9 22.5 -49.1 37.3 -55.9 43 -10.1 8.5 -23.3 24.1 -34.5 41.1 -10.6 15.9 -23.3 29.3 -37.1 39.1 -8.8 6.3 -25.9 15.2 -34.5 18 -11.6 3.7 -18.2 7.9 -23 14.5 -6.9 9.5 -10.6 15.6 -15.7 26 -4.6 9.3 -4.6 9.6 -5.4 22.5 -1.5 24.9 0.8 54.5 4.2 54.5 2.2 0 0.5 2.7 -3.5 5.7 -5.3 3.9 -9.5 10 -13.7 20.1 -7.6 18.4 -12.4 26.6 -20.7 35 -4.4 4.5 -8.8 8.2 -9.7 8.2 -1.6 0 -1.6 -2.6 -1 -34.7 0.7 -33.1 0.6 -35.2 -1.3 -42.8 -6.7 -26.1 -8.9 -51.8 -5.8 -67 3.5 -17.2 12.8 -30.3 28.8 -40.7 6.4 -4.1 7.8 -5.5 7.8 -7.6 0 -10.7 6.3 -144.9 7.5 -160.7 6.8 -85.9 24.9 -144.4 58.5 -189 47.1 -62.5 127.6 -95 265 -106.9 41.8 -3.7 67 -4.9 152.5 -7.6 108.2 -3.4 159.8 -6.5 243.5 -14.6 30.8 -2.9 112.8 -11.9 129.4 -14.1 4.2 -0.5 9 -3.3 34 -19.8 46.4 -30.7 75.4 -47.2 98 -56 8.9 -3.4 9.7 -4 17.3 -12.3 17.7 -19.4 32.6 -38.1 42.5 -53.3 l5 -7.7 3.6 0.9 c13.3 3.1 29 -2.1 39.4 -12.8 3.9 -4.1 25.3 -33.9 35.3 -49.1 3.3 -5 6.4 -9.1 6.9 -9.2 0.5 0 0.6 1.5 0.3 3.4 -0.3 1.8 -0.1 6.5 0.4 10.2 0.5 3.8 1.3 15.7 1.8 26.5 l1 19.5 6.2 19 c3.4 10.4 8.4 24.5 11.2 31.4 5.1 12.6 16 31.9 22.3 39.7 3.1 3.7 4.8 9.3 2.5 7.8 -1 -0.5 -4.2 5.9 -9.2 18.2 -1.5 4 -5.8 13.4 -9.5 21 -3.6 7.6 -10 21.5 -14 30.8 -4.1 9.4 -8.9 19.5 -10.8 22.5 -1.8 3 -6.1 10.9 -9.5 17.5 -16.2 31.6 -54.4 72 -82.6 87.6 -3.3 1.8 -13 7.3 -21.5 12.3 -8.6 5 -18.6 10.7 -22.4 12.6 -26.8 13.6 -54 60.5 -66.5 114.5 -2.3 9.9 -5.5 23.4 -7.1 30 -3.4 14.5 -6 31.2 -6 39.1 0 3.3 -0.9 13.1 -2.1 21.9 -1.1 8.8 -1.8 18.3 -1.5 21 0.4 4.7 6.5 23.5 15.1 47 2 5.5 4.8 15.4 6.2 22 2.2 10.6 2.4 13.9 2.1 28 -0.4 14.8 -0.8 17.3 -4.7 32.8 -2.9 11.7 -5.5 19.4 -8.5 25.5 -5.2 10.4 -7.2 16.3 -8.6 25.7 -0.6 3.9 -1.6 10.2 -2.2 14 -1.9 12.6 1.2 39 6.7 57.2 1.5 5.1 11.6 21.5 14.9 24.2 2.8 2.4 14.4 19.4 14.6 21.6 0.7 6 -1.2 5.9 -7.2 -0.2z"/>
  <path d="M1506.6 1382.3 c0.9 -5.2 1.4 -5.4 1.4 -0.5 0 2.3 -0.5 4.2 -1 4.2 -0.7 0 -0.8 -1.4 -0.4 -3.7z"/>
  <path d="M46.5 1343.9 c0.4 -1.9 0.9 -3.7 1.1 -4 0.5 -0.9 11.2 -3.7 17.4 -4.4 3 -0.4 8.7 -1.9 12.5 -3.2 6.1 -2.2 9.2 -3.8 18 -9 1.1 -0.7 2.9 -1.6 4 -2.2 2.6 -1.2 15.3 -10.2 23.5 -16.6 7.2 -5.7 21.9 -19.9 30.2 -29.3 l5.5 -6.2 0.7 7.9 c0.6 7 3.7 26.6 5.3 32.9 0.4 1.7 0.2 2.1 -1 1.6 -0.9 -0.3 -2.8 1.1 -5.3 4.2 -2.2 2.6 -7.1 6.9 -11.1 9.4 -13.2 8.7 -40.8 15.9 -68.8 18 -17.3 1.4 -27 2.5 -30.4 3.5 -2.2 0.8 -2.3 0.6 -1.6 -2.6z"/>
  <path d="M1403.8 1331.6 c-18 -18.5 -23 -24.8 -27.9 -35.1 -3.7 -8 -3.7 -8 -2.8 -16 0.4 -4.4 1.3 -10.3 1.9 -13.1 l1.1 -5.2 6.2 -0.7 c3.4 -0.4 11.8 -1.8 18.7 -3.1 6.9 -1.3 12.8 -2.4 13.3 -2.4 0.4 0 0.7 1.2 0.6 2.8 -0.1 1.5 0.3 15.1 1 30.2 1 24.3 2.4 39.7 5.1 53.8 0.6 3.6 0.5 4.2 -0.9 4.1 -0.9 -0.1 -8.2 -7 -16.3 -15.3z"/>
  <path d="M576.5 1322.3 c-2.2 -4.5 -8.3 -19.3 -8 -19.3 0.2 0 2.8 3.1 5.9 6.9 5 6.1 5.6 7.3 5.6 11.5 0 2.5 -0.4 4.6 -0.8 4.6 -0.5 0 -1.7 -1.7 -2.7 -3.7z"/>
  <path d="M1513.8 1318.5 c-0.3 -0.6 -0.9 -5.5 -1.3 -11 -0.4 -5.5 -1.5 -13.8 -2.5 -18.5 -1 -4.7 -2.1 -11 -2.5 -14 -2.4 -19.9 -9 -55.1 -11 -59 -2.2 -4.3 -1.9 -5.2 3.1 -10 6.6 -6.5 18.3 -21.2 24.9 -31.5 3.2 -4.9 12.1 -16.3 19.8 -25.4 15.9 -18.9 18 -21.2 17.3 -19.1 -2.3 6.5 -27.9 98.4 -32.6 117.3 -5.7 22.8 -10.8 47.3 -13.4 64.2 -0.7 4.4 -1.5 7.5 -1.8 7z"/>
  <path d="M1780 552 c-0.8 -0.5 -0.7 -2.4 0.4 -6.6 1.7 -6.9 4.6 -29 4.6 -35.4 0 -4.4 2.3 -24.9 6.1 -53.4 3.6 -28 2 -57 -4.6 -84.2 -1.9 -8 -2.6 -13.9 -3 -27.5 -0.7 -21.3 -1.8 -29.2 -4.9 -36.7 -1.3 -3.1 -2.7 -6.8 -3.1 -8.2 -0.4 -1.4 -1.9 -4.2 -3.2 -6.4 -1.4 -2.1 -4.6 -8.9 -7.3 -15 -4.1 -9.6 -15.1 -29.3 -21.2 -37.9 -1.9 -2.6 -1.9 -3.4 -0.8 -15.3 3.1 -30.5 -4.6 -59.8 -27.1 -104.2 -5.5 -10.7 -9.9 -19.6 -9.9 -19.9 0 -0.2 2.3 0.8 5.1 2.3 4.4 2.4 6.3 4.6 15.2 17.8 5.6 8.3 14 21.3 18.7 28.8 4.7 7.6 24.5 35 44.1 61 84 111.5 99.9 138.1 99.9 166.8 0 23.1 -10.8 44 -70.3 136.5 -19 29.5 -21.4 32.7 -26.2 35.3 -3.5 1.8 -11 3.2 -12.5 2.2z"/>
  <path d="M1272.5 533.1 c-2.2 -1 -5.6 -3.6 -7.6 -5.7 -2 -2.2 -7.7 -6.7 -12.6 -10.2 -32.3 -22.5 -46.9 -42.3 -80.6 -109.7 l-12.5 -25 -14.9 -14.5 c-20.5 -19.9 -20.4 -19.7 -11.4 -46.7 4.1 -12.1 6.3 -20.7 7.1 -26.8 1.5 -12.9 6.1 -21.8 18.8 -36.5 19.9 -23 146.7 -146.6 155 -151 7.9 -4.3 19.8 -2.6 25.4 3.7 1.6 1.7 1.4 2.8 -4.3 20.3 -3.3 10.2 -8 26.6 -10.4 36.4 l-4.5 17.9 -9.9 10.1 c-5.5 5.6 -11.5 12.4 -13.2 15.1 -1.7 2.8 -4.8 7 -6.9 9.5 -4 4.8 -15 21.6 -18.9 29 -1.4 2.5 -5.9 9.8 -10 16.3 -21.8 33.8 -22.2 34.7 -23.4 46.1 -0.9 8.3 -0.8 11.1 0.7 18.5 2.9 14.1 9.5 40.2 11.7 46.1 1.2 3 2.9 10.9 4 17.5 3 18.5 4.5 26.1 7.8 38 4.7 17.4 9.8 37.5 11.1 44 0.7 3.3 1.9 8.3 2.7 11 0.8 2.8 1.8 12.3 2.3 21.1 0.7 12.2 1.4 17.4 3 21.5 1.1 3 2 5.5 2 5.7 0 0.9 -7.2 -0.2 -10.5 -1.7z"/>
  <path d="M1676.9 393.2 c-7.8 -7.9 -9.8 -12.9 -12.4 -31.2 -2.5 -17.5 -6.2 -32.3 -9.9 -40.3 -1.9 -3.9 -5.3 -11.2 -7.6 -16.2 -2.2 -4.9 -6.3 -12.1 -8.9 -16 -3.1 -4.5 -5 -8.5 -5.3 -11.2 -0.8 -6.1 -5 -14.5 -9.8 -19.7 -5.3 -5.7 -19.2 -16.3 -24.6 -18.7 -10.2 -4.6 -33.6 -6.2 -55.1 -3.8 -11.1 1.2 -18 3.5 -24.6 8.2 -5.9 4.2 -16.1 15.9 -18.7 21.4 -1.2 2.6 -3.2 4.9 -5.2 5.9 -14 7.2 -30.4 28.1 -35.9 45.7 -1.6 4.8 -4.2 11.3 -6 14.4 -3.3 5.7 -12.6 17.9 -18.8 24.7 -4 4.3 -21.4 18.5 -27.3 22.2 -4 2.5 -8.5 3.3 -7.2 1.2 0.4 -0.6 0.9 -3.2 1.1 -5.7 0.8 -10.3 5.5 -34.2 7.9 -40.2 5.4 -13.3 16.9 -33.9 26.6 -47.8 2.1 -3 3.8 -6 3.8 -6.8 0 -0.8 -1.2 -3.7 -2.6 -6.6 -1.5 -2.8 -3.7 -7.9 -4.9 -11.2 l-2.3 -6 -12.3 -1.2 c-6.8 -0.7 -18.8 -1.7 -26.6 -2.2 -24.4 -1.8 -32.7 -4.7 -43.5 -15.2 -5.9 -5.8 -6.7 -7 -7.8 -12.4 -2.4 -11.3 0.1 -33.1 6.6 -58.5 3.4 -13.4 17.3 -56 23.3 -71.7 4.3 -11.1 7.8 -14.1 28.2 -24.1 34.8 -17.1 58.6 -23.2 97.7 -25.1 33 -1.6 72.1 1.1 101.6 7 23.3 4.6 55.1 15.7 66.8 23.2 6.7 4.3 8.4 6.7 22.2 31.5 18.7 33.5 29.1 56.9 34.1 76.7 4.7 18.5 5.4 37.5 1.8 46.7 -1.8 4.6 -12.7 15 -19.1 18.2 -6 2.9 -17.1 6.2 -24.2 7.1 -3 0.4 -8.3 1.3 -11.8 2.1 -3.4 0.7 -10.3 1.6 -15.3 1.8 -4.9 0.2 -9.3 0.6 -9.6 0.9 -0.6 0.6 -0.6 2.3 -0.4 15.4 l0.1 7.3 4.8 2.9 c11.2 6.9 15.3 11.5 23.8 26.8 6.1 11 10.5 22.4 13.5 35.1 2.4 10 4.8 47.4 3.1 48 -0.5 0.1 -0.8 1.2 -0.5 2.2 1 3.6 -2.1 2 -8.8 -4.8z m1 -177.8 c10.1 -2.9 16.2 -12.5 14.7 -23 -0.8 -6 -6 -15.8 -11.1 -20.9 -5.9 -5.9 -19.2 -13.4 -26.2 -14.7 -7.7 -1.4 -15.8 0.8 -20.7 5.6 -8 8.1 -8.8 30.4 -1.3 38.5 3.6 3.8 16.9 12.4 22.2 14.3 6.2 2.2 15.5 2.3 22.4 0.2z m-253.9 -7.5 c13 -2 24.5 -9.4 28.6 -18.3 3.2 -6.8 3 -10.7 -0.7 -17.7 -7.3 -13.6 -12.9 -17.2 -27.4 -17.2 -8.4 0 -9.7 0.3 -18.5 4.2 -14.6 6.4 -20.8 13.7 -21.8 25.6 -0.5 6.5 0.6 9.7 5.5 16.3 5.4 7.3 17.7 9.8 34.3 7.1z m49.8 -73.6 c-0.5 -4.3 -1.4 -9.6 -1.9 -11.7 -1.4 -5.2 -10.2 -13.9 -19.7 -19.5 -5.8 -3.5 -8.4 -4.4 -13.5 -4.8 -8.9 -0.8 -11.1 1.3 -13.3 12.5 -2.6 13.3 -0.1 16.5 11.1 14.2 10.7 -2.2 16.5 0.3 28 11.9 9.6 9.8 10.6 9.5 9.3 -2.6z m140.2 2.7 c2.8 -6.6 13.3 -11.9 23.8 -12 7.8 0 10.5 -0.9 12.2 -4 0.9 -1.7 0.4 -2.7 -2.8 -6.2 -2.1 -2.4 -4.6 -5.6 -5.6 -7.1 -3.8 -6.1 -11.9 -8.4 -17.4 -5 -8.4 5.1 -10.3 6.9 -12.7 11.6 -2 4.1 -2.5 6.6 -2.5 12.8 0 11.6 2.4 16.3 5 9.9z"/>
 </g>
 <g fill="#ab643e">
  <path d="M1162.5 1580 c-25.4 -0.5 -26.1 -0.6 -30.5 -3 l-4.5 -2.5 -0.7 -7.5 c-1.6 -17.2 -2.9 -50.1 -2.3 -57.9 0.4 -5.7 1.6 -11 3.7 -16.5 1.7 -4.5 3.8 -10.4 4.8 -13.2 1 -2.7 3 -7.5 4.5 -10.5 4 -7.8 17.4 -27.7 21.5 -31.8 12.1 -12.1 15.6 -20.2 15.3 -35 l-0.2 -9.3 3.2 2.6 c1.7 1.4 5.7 4.4 8.7 6.5 3 2.1 6.6 5.1 8 6.6 5 5.5 18.9 16.5 20.8 16.5 2.7 0 5 -2.2 12.3 -12 3.4 -4.7 8.2 -10.7 10.5 -13.3 5 -5.6 12.4 -16.7 15.6 -23.2 1.2 -2.5 2.4 -4.5 2.7 -4.5 0.4 0 0.7 8 0.8 17.8 0.4 28.9 2.7 54.5 5.9 64.2 1.5 4.5 3.5 9.2 4.5 10.4 1.1 1.4 5.8 3.9 11.1 6 28 11 35.6 26.1 34.5 68.6 -0.4 16.8 -0.8 20.3 -2.7 25.3 -2.8 7.5 -6.3 11.4 -12.5 14.3 l-5 2.4 -52 -0.2 c-28.6 -0.1 -63.7 -0.5 -78 -0.8z"/>
  <path d="M1119.6 1555.3 c-0.3 -1 -0.8 -3.9 -1.2 -6.5 -0.5 -3.9 -0.3 -4.8 0.9 -4.8 1.3 0 2.7 5.6 2.7 11.1 0 2.4 -1.7 2.5 -2.4 0.2z"/>
  <path d="M1439.5 1545.3 c-23.4 -1.2 -33.4 -2.3 -37.2 -3.8 -2.4 -1 -4.3 -2.1 -4.3 -2.6 0 -1.4 3.3 -1.1 7.3 0.6 7.8 3.2 8 2.5 2.1 -9.2 -6.8 -13.6 -9 -22.7 -10.5 -42.9 -2.2 -29.4 -0.5 -35.7 13.9 -50.5 7.7 -8.1 9.3 -9.2 21.5 -15.2 7.3 -3.6 14 -7.4 15.1 -8.6 1.8 -2 1.8 -2.1 -2.4 -6.5 -5.8 -6 -12.1 -15.5 -17 -25.1 -4.2 -8.4 -9.4 -28.8 -8.8 -34.4 0.3 -3 0.5 -2.8 11.8 8.1 14.8 14.3 20.8 19 42.5 33.3 17.9 11.8 25.7 16.1 27.4 15.1 0.5 -0.3 1.1 -1.8 1.4 -3.3 0.3 -1.6 1.6 -7.1 3 -12.3 l2.5 -9.5 0.6 8 c3 37.2 5.6 45.9 15.4 51.4 2.4 1.2 11.5 4.9 20.3 8.2 8.7 3.2 19.2 7.5 23.2 9.6 13 6.9 25.6 20.9 32.5 36.3 4.7 10.5 9.2 25.3 9.2 30.2 0 8.2 -4.5 15.9 -11.4 19.5 -8.2 4.3 -8.8 4.3 -82.1 4.1 -38.5 -0.1 -72.7 -0.3 -76 -0.5z"/>
  <path d="M227 1536.4 c-14.4 -5.9 -24.7 -11.5 -29.9 -16.3 l-5.1 -4.7 0 -15 c0 -19.4 2.2 -35.3 7.1 -51.9 3.3 -11.1 4.7 -14.3 8.8 -20.4 7.9 -11.7 21.9 -36.8 23.5 -42.1 1 -3 2.1 -6.2 2.5 -7 0.5 -0.9 1.4 -6.4 2.2 -12.2 1.1 -9.4 1 -12.4 -0.5 -25.5 -1 -8.1 -2 -16 -2.3 -17.4 -0.4 -2.3 0 -2.7 5.4 -4.8 3.8 -1.5 9.4 -2.5 16.3 -3 11.5 -0.8 48.4 0.2 51.3 1.4 1.5 0.6 1.7 2.2 1.7 11.4 0.1 40.1 4 87.7 8.2 100.7 l1.3 3.9 11 0 c9.8 0 11.6 0.3 16.5 2.6 10.9 5.2 18.2 15.4 21.6 30.5 2.1 9.2 3.1 46.2 1.5 52.2 -1.7 6.2 -8 12.6 -14.7 15.1 -4.8 1.9 -10.7 2.3 -55 4.1 -64.5 2.6 -61 2.7 -71.4 -1.6z"/>
  <path d="M1106.6 1520.4 c-1.1 -2.8 -0.6 -5.4 0.9 -5.4 1 0 1.5 1.1 1.5 3.5 0 3.6 -1.3 4.7 -2.4 1.9z"/>
  <path d="M1387.6 1515.4 c-1.2 -3.2 -0.7 -8.4 0.9 -8.4 1.1 0 1.5 1.2 1.5 5 0 4.9 -1.2 6.6 -2.4 3.4z"/>
  <path d="M1387 1503.7 c0 -0.1 -0.4 -1.7 -0.9 -3.5 -0.9 -2.8 -0.7 -3.2 1 -3.2 1.5 0 1.9 0.7 1.9 3.5 0 1.9 -0.4 3.5 -1 3.5 -0.5 0 -1 -0.1 -1 -0.3z"/>
  <path d="M1106 1494.6 c0 -1.3 0.3 -3.1 0.6 -4 1.1 -2.9 2.4 -1.6 2.4 2.4 0 2.9 -0.4 4 -1.5 4 -0.9 0 -1.5 -0.9 -1.5 -2.4z"/>
  <path d="M1376 1490 c-3.8 -3.7 -4.2 -4.5 -2.6 -4.8 1.1 -0.2 3 0.8 4.8 2.6 1.8 1.8 2.8 3.7 2.6 4.8 -0.3 1.6 -1.1 1.2 -4.8 -2.6z"/>
  <path d="M576.7 1480.7 c-3.6 -1.7 -8.5 -6.3 -20.7 -19.7 -8.8 -9.6 -16 -17.9 -16 -18.6 0 -0.6 2.7 -5.3 6.1 -10.5 8.1 -12.4 9.3 -14.2 16.8 -24 7.9 -10.4 10.6 -16.3 12.5 -27.6 2.3 -13.7 3.8 -36.3 3 -45.8 -0.9 -11.4 0.7 -11.3 6.4 0.4 2.3 4.9 6.8 13.1 10 18.2 3.2 5.2 9.1 14.7 13.1 21.2 10 16.2 16 22.4 26.9 28 10.4 5.4 18.1 7.7 25.4 7.7 7.4 0 17.5 1.8 21.2 3.7 12.1 6.2 34.8 29.2 53.3 53.9 3 3.9 3.6 4.3 6.4 3.7 3 -0.6 3.1 -0.5 2 1.6 -0.7 1.2 -2.9 3.3 -5 4.7 -8.1 5.3 -8.8 5.4 -85.6 5.4 l-71 0 -4.8 -2.3z"/>
  <path d="M1368.2 1479.8 c-1.7 -1.7 -1.5 -3.8 0.3 -3.8 0.9 0 1.5 0.9 1.5 2.5 0 2.9 -0.1 3 -1.8 1.3z"/>
  <path d="M1109 1467.6 c0 -2.2 1.1 -4.6 2.1 -4.6 0.5 0 0.9 1.4 0.9 3 0 2 -0.5 3 -1.5 3 -0.8 0 -1.5 -0.6 -1.5 -1.4z"/>
  <path d="M1364 1451.6 c0 -2.2 1.1 -4.6 2.1 -4.6 0.5 0 0.9 1.4 0.9 3 0 2 -0.5 3 -1.5 3 -0.8 0 -1.5 -0.6 -1.5 -1.4z"/>
  <path d="M741.6 1447.8 c-1.5 -5.9 0.4 -8.1 2.3 -2.7 1.4 4.1 1.4 4.9 -0.3 4.9 -0.7 0 -1.6 -1 -2 -2.2z"/>
  <path d="M1113 1439.6 c0 -2.2 1.1 -4.6 2.1 -4.6 0.5 0 0.9 1.4 0.9 3 0 2 -0.5 3 -1.5 3 -0.8 0 -1.5 -0.6 -1.5 -1.4z"/>
  <path d="M736 1431.5 c0 -2.8 1.5 -3.4 2.4 -0.9 1 2.5 0.7 3.4 -0.9 3.4 -0.9 0 -1.5 -0.9 -1.5 -2.5z"/>
  <path d="M1369 1431.1 c0 -1.7 1.2 -4.1 2.1 -4.1 0.5 0 0.9 1.1 0.9 2.5 0 1.6 -0.6 2.5 -1.5 2.5 -0.8 0 -1.5 -0.4 -1.5 -0.9z"/>
  <path d="M1111.7 1428 c-1.6 -2.2 -1.6 -2.5 -0.1 -2.8 2.1 -0.5 2.6 0.2 2.2 3 l-0.3 2.3 -1.8 -2.5z"/>
  <path d="M184 1424.1 c0 -2.6 1 -5.1 2.1 -5.1 0.5 0 0.9 1.6 0.9 3.5 0 2.4 -0.5 3.5 -1.5 3.5 -0.8 0 -1.5 -0.9 -1.5 -1.9z"/>
  <path d="M1371 1425.1 c0 -1.7 1.2 -4.1 2.1 -4.1 0.5 0 0.9 1.1 0.9 2.5 0 1.6 -0.6 2.5 -1.5 2.5 -0.8 0 -1.5 -0.4 -1.5 -0.9z"/>
  <path d="M1107.6 1420.4 c-1 -2.5 -0.7 -3.4 0.9 -3.4 0.9 0 1.5 0.9 1.5 2.5 0 2.8 -1.5 3.4 -2.4 0.9z"/>
  <path d="M729 1417.6 c0 -1.5 -0.7 -2.6 -2 -2.9 -1.2 -0.3 -2 -1.4 -2 -2.6 0 -1.2 -0.6 -2.1 -1.3 -2.1 -2.1 0 -4.9 -3.6 -4.5 -5.7 0.4 -1.5 1.3 -0.9 4.9 2.9 2.4 2.6 5.4 6.6 6.7 8.8 2.2 3.9 2.2 4 0.2 4 -1.4 0 -2 -0.7 -2 -2.4z"/>
  <path d="M185 1410.6 c0 -1.3 0.3 -3.1 0.6 -4 1.1 -2.9 2.4 -1.6 2.4 2.4 0 2.9 -0.4 4 -1.5 4 -0.9 0 -1.5 -0.9 -1.5 -2.4z"/>
  <path d="M1103.6 1407.4 c-1 -2.5 -0.7 -3.4 0.9 -3.4 0.9 0 1.5 0.9 1.5 2.5 0 2.8 -1.5 3.4 -2.4 0.9z"/>
  <path d="M701 1393.5 c0 -1.6 0.9 -1.9 3.4 -0.9 2.5 0.9 1.9 2.4 -0.9 2.4 -1.6 0 -2.5 -0.6 -2.5 -1.5z"/>
  <path d="M685 1389.5 c0 -1.5 2.6 -2 5.4 -0.9 2.8 1.1 1.7 2.4 -1.9 2.4 -2.4 0 -3.5 -0.5 -3.5 -1.5z"/>
  <path d="M668 1387.5 c0 -1.6 3.5 -2 6.4 -0.9 2.9 1.1 1.6 2.4 -2.4 2.4 -2.9 0 -4 -0.4 -4 -1.5z"/>
  <path d="M654.3 1386.3 c-1.3 -0.2 -2.3 -1.1 -2.3 -1.9 0 -1.2 0.7 -1.4 3.3 -0.9 5.4 1.1 6.7 1.6 6.7 2.6 0 0.9 -3.5 1 -7.7 0.2z"/>
  <path d="M1386 1386.1 c0 -1.7 1.2 -4.1 2.1 -4.1 0.5 0 0.9 1.1 0.9 2.5 0 1.6 -0.6 2.5 -1.5 2.5 -0.8 0 -1.5 -0.4 -1.5 -0.9z"/>
  <path d="M634 1377 c0 -0.5 -0.7 -1 -1.5 -1 -0.8 0 -1.5 -0.9 -1.5 -2.1 0 -2 0.1 -2 3.1 -0.2 4.8 2.8 5.6 4.3 2.5 4.3 -1.4 0 -2.6 -0.4 -2.6 -1z"/>
  <path d="M1104 1377.1 c0 -1.7 1.2 -4.1 2.1 -4.1 0.5 0 0.9 1.1 0.9 2.5 0 1.6 -0.6 2.5 -1.5 2.5 -0.8 0 -1.5 -0.4 -1.5 -0.9z"/>
  <path d="M1389.6 1375.4 c-1 -2.5 -0.7 -3.4 0.9 -3.4 0.9 0 1.5 0.9 1.5 2.5 0 2.8 -1.5 3.4 -2.4 0.9z"/>
  <path d="M621.4 1367.5 c-1.2 -3.2 0.2 -3.7 3.1 -1.2 l3 2.6 -2.8 0.1 c-1.5 0 -3 -0.7 -3.3 -1.5z"/>
  <path d="M1107 1362.1 c0 -2.6 1 -5.1 2.1 -5.1 0.5 0 0.9 1.6 0.9 3.5 0 2.4 -0.5 3.5 -1.5 3.5 -0.8 0 -1.5 -0.9 -1.5 -1.9z"/>
  <path d="M603.2 1349.7 c-1.2 -1.3 -2.2 -3.4 -2.2 -4.7 l0 -2.4 3.1 3 c1.7 1.6 3.5 3.7 4 4.7 1.5 2.6 -2.3 2.2 -4.9 -0.6z"/>
  <path d="M1111 1344.3 c0 -3.3 2.1 -9.3 3.2 -9.3 0.7 0 0.8 1.3 0.4 3.8 -0.3 2 -0.6 4.5 -0.6 5.5 0 0.9 -0.7 1.7 -1.5 1.7 -0.8 0 -1.5 -0.8 -1.5 -1.7z"/>
  <path d="M595.7 1341.3 c-0.4 -0.3 -0.7 -1.7 -0.7 -3.1 0 -2.1 0.2 -2.3 1.6 -1.2 0.8 0.8 2 2.2 2.5 3.2 0.8 1.4 0.6 1.8 -0.9 1.8 -1 0 -2.2 -0.3 -2.5 -0.7z"/>
  <path d="M1113 1323.8 c0.1 -9.3 0.2 -10.1 1.5 -8.4 2.2 2.8 2.1 18.6 0 18.6 -1.2 0 -1.5 -1.8 -1.5 -10.2z"/>
  <path d="M1374.6 1327.4 c-1.1 -2.8 -0.6 -5.4 0.9 -5.4 1 0 1.5 1.1 1.5 3.5 0 3.6 -1.3 4.7 -2.4 1.9z"/>
  <path d="M578 1318.6 c0 -0.8 -0.3 -2.3 -0.7 -3.3 -0.6 -1.6 -0.5 -1.6 1.1 -0.4 0.9 0.8 2.2 2.3 2.7 3.3 0.8 1.5 0.6 1.8 -1.1 1.8 -1.1 0 -2 -0.6 -2 -1.4z"/>
  <path d="M958 1251.6 c0 -0.2 4.3 -2.1 9.7 -4.1 14.1 -5.5 44.3 -21.1 65.1 -33.6 12.7 -7.7 15.2 -8.9 25.7 -12.3 3.9 -1.3 7.8 -2.7 8.8 -3.1 1.6 -0.7 1.7 0.5 1.7 17.4 l0 18.1 -2.4 0 c-3.7 0 -24.7 3.8 -41.9 7.6 -8.7 1.9 -27.1 5.1 -40.8 7 -27.6 3.8 -25.9 3.6 -25.9 3z"/>
  <path d="M1293 1242.9 c-9 -0.6 -16.6 -1.2 -16.9 -1.5 -0.2 -0.2 -0.8 -6.6 -1.2 -14.1 -0.4 -7.6 -1.2 -18.1 -1.8 -23.3 -1.6 -14.6 -1.3 -21.6 1.3 -31 3.7 -13.2 2.8 -12.3 15.6 -15.5 3.5 -0.9 7.2 -2.1 8.1 -2.6 1.5 -0.8 9.4 -3.1 31.4 -9.3 20.1 -5.7 53.8 -23.7 76.2 -40.8 4.8 -3.7 12.9 -9.7 17.8 -13.4 5 -3.7 13.2 -10.8 18.2 -15.8 5.1 -5 9.7 -9.2 10.3 -9.4 1.4 -0.5 17.3 -22.9 20 -28.2 1.2 -2.5 4.2 -7.4 6.5 -11 2.3 -3.6 6.1 -11.7 8.5 -18 2.4 -6.3 6.9 -17.4 10.1 -24.5 6.3 -14.2 10.1 -26.7 17.4 -58.5 2.6 -11.3 5.6 -22.6 6.6 -25.1 2.8 -7.3 7.7 -24.9 8.4 -30.6 0.8 -6 2.6 -8.3 5.1 -6.2 3.6 3 14.6 18.1 16.8 23.1 3.3 7.4 6.3 20.5 7.5 32.3 0.6 5.5 1 34.1 1 63.5 0 70.3 -0.9 82.4 -9.2 117.6 l-3.3 14 -16.5 19.5 c-9.1 10.7 -19.8 24.3 -23.7 30.1 -12.8 19 -23.7 31.2 -37.7 42.3 -24.9 19.5 -52.7 30.3 -90.6 35 -15.4 2 -63.2 2.7 -85.9 1.4z"/>
  <path d="M1487.5 708.3 c-8.7 -1.1 -22.2 -4.6 -26.6 -6.9 -9.5 -4.7 -36.5 -30.4 -47.9 -45.4 -1.9 -2.5 -5.8 -7.3 -8.7 -10.8 -2.9 -3.4 -5.3 -6.7 -5.3 -7.3 0 -0.5 0.7 -2.3 1.5 -4 3.2 -6 10.7 -26.7 13.6 -37.2 1.6 -5.9 3.8 -13 4.9 -15.7 1.1 -2.8 3.3 -10.5 4.9 -17.3 1.6 -6.7 4 -15.1 5.4 -18.7 3.2 -8.7 8.3 -31.2 9.7 -43.2 0.6 -5.4 2.2 -13.9 3.6 -19 2.5 -9.3 2.3 -10.7 -1.3 -10.8 -0.7 0 -1.3 -0.4 -1.3 -1 0 -0.5 -1.1 -1 -2.5 -1 -1.8 0 -2.5 -0.5 -2.5 -2 0 -1.8 0.3 -1.9 2.1 -0.9 5.1 2.7 24.3 8.9 35.2 11.3 25.5 5.7 55.3 8.6 89.3 8.6 43.9 0 67.6 -4 90.5 -15.3 l10.6 -5.2 1.1 17.5 c1.7 25.1 -0.2 43.7 -6.3 62.5 -3.4 10.3 -7.7 18.6 -19.4 37.2 -5.5 8.7 -12.8 20.3 -16.2 25.7 -5.1 8.1 -9.8 13.5 -26.3 30 -11.1 11.1 -23.7 22.9 -28.1 26.3 -4.4 3.3 -10.2 8.4 -13 11.3 -8.4 8.7 -27 20.6 -41 26.3 -7.4 2.9 -20.4 6.2 -22.5 5.5 -0.3 0 -1.8 -0.3 -3.5 -0.5z"/>
  <path d="M1526.5 466 c-59.2 -5.2 -91.2 -16.5 -115.5 -41 -12.8 -12.8 -17.5 -19.7 -20.6 -29.6 -1.4 -4.7 -2.4 -8.9 -2.2 -9.5 0.2 -0.6 3.5 -2.6 7.4 -4.4 l7.1 -3.2 1.1 5.7 c1.3 6.2 5.1 14.1 8.5 17.7 1.9 2.1 1.9 2.4 0.4 4.1 -6.6 7.3 5.6 23.1 19 24.8 16.9 2.1 34.9 -2.6 52.6 -13.7 13.5 -8.5 31.7 -20.6 36.2 -24.2 11.6 -9.3 27.8 -14.5 41.3 -13.4 11 0.9 30.1 11 49.2 26.1 10 8 25 17.9 32.6 21.6 12 5.9 18.9 5.4 25.6 -1.7 4.6 -4.8 6.2 -11.9 3.3 -14.3 -1.3 -1.1 -1.1 -1.7 1.4 -4.6 1.6 -1.8 4.2 -5.4 5.6 -7.9 1.5 -2.5 2.9 -4.5 3.1 -4.5 0.2 0 1 1 1.9 2.3 1.4 2.1 1.3 2.9 -0.9 9.3 -11.9 35.2 -34.7 52.4 -77.9 59 -12 1.8 -63.5 2.7 -79.2 1.4z"/>
 </g>
 <g fill="#c49c63">
  <path d="M1125 1570.8 c-3.4 -4.6 -4.5 -8.3 -5.5 -17.8 -0.7 -6.6 -1.4 -8.5 -7.3 -18.1 -1.7 -3 -3.8 -7.2 -4.4 -9.4 -1.6 -5.2 -1.6 -34 0 -46 0.7 -4.9 2.4 -17.5 3.9 -27.8 l2.6 -18.8 -4.1 -8.2 c-5.5 -10.8 -7.2 -18.1 -7.2 -29.7 0 -12.2 1.4 -20.5 8.6 -52 0.8 -3.6 1.8 -11.3 2.1 -17.2 l0.6 -10.7 6.6 8.7 c3.6 4.8 10.2 13.9 14.6 20.2 8.8 12.8 24.7 32.9 34.2 43.2 5.9 6.5 6.2 7.1 6.8 13.3 0.8 6.9 -0.5 16.2 -3.1 22.3 -1.5 3.6 -6.9 10.7 -12.4 16.2 -4.1 4.2 -17.5 24.1 -21.5 31.9 -1.5 3 -3.5 7.8 -4.5 10.5 -1 2.8 -3.3 8.9 -5.1 13.6 l-3.3 8.5 0.2 23 c0.1 12.7 0.6 26.2 1.1 30 1.6 11.4 2 18.5 1 18.5 -0.5 0 -2.2 -1.9 -3.9 -4.2z"/>
  <path d="M1410.5 1543 c-8 -1 -12.4 -3.1 -16.7 -7.8 -4.7 -5.2 -5.5 -8.3 -6.3 -23.1 l-0.6 -12.5 -8 -7.4 c-11 -10.2 -14.1 -16.4 -14.7 -28.8 -0.7 -15.4 4.2 -33.8 18.4 -69.2 l7.4 -18.4 -3.4 -9.1 c-4.5 -12 -10.3 -31.2 -11.6 -38.5 -0.6 -3.1 -1.5 -7.7 -2 -10.2 -1.2 -6.2 -1.3 -32 0 -32 0.5 0 2.5 3.4 4.4 7.6 5.1 10.8 9 15.8 27.3 34.5 10 10.2 16.3 17.4 16.3 18.6 0 1.1 1.1 7.1 2.5 13.4 3.6 16.5 12.5 33.2 23.9 44.9 2.5 2.6 4.6 5.4 4.6 6.2 0 2.7 -5.5 6.6 -18.2 12.8 -11.7 5.7 -13.3 6.8 -21.1 14.9 -9.4 9.8 -13.3 16.7 -14.3 25.4 -0.9 8.1 1.3 35.6 3.7 45.2 1.9 7.7 8 21.5 13.4 30.3 1.4 2.3 2.3 4.1 1.8 4.1 -0.4 -0.1 -3.5 -0.5 -6.8 -0.9z"/>
  <path d="M190 1512.8 c-5.3 -6.6 -7.4 -10.9 -9.5 -18.9 -2.2 -8.2 -1.6 -24.3 1.9 -52.9 1.4 -11.3 3 -27.8 3.6 -36.8 l1.1 -16.3 8.5 -8.5 c8.8 -9 13.5 -16.7 21.3 -35.6 1.8 -4.2 4.6 -9.7 6.2 -12.2 3.8 -5.7 10.8 -11.4 11.8 -9.7 0.9 1.4 4.1 28.5 4.2 35.6 0.1 5.7 -1.8 20 -3.1 23 -0.5 1.1 -1.6 4.5 -2.5 7.5 -1.7 5.3 -15.7 30.4 -23.6 42.1 -4.1 6 -5.4 9.3 -8.8 20.4 -5.2 17.5 -7.5 35.8 -6.9 54 0.2 7.4 0.3 13.5 0.2 13.5 -0.2 0 -2.2 -2.3 -4.4 -5.2z"/>
  <path d="M733.2 1470.3 c-21.3 -27.9 -41.4 -48.2 -53.8 -54.6 -3.7 -1.9 -13.8 -3.7 -21.2 -3.7 -7.3 0 -15 -2.3 -25.4 -7.7 -10.9 -5.6 -16.9 -11.8 -26.9 -28 -4 -6.5 -9.8 -15.9 -13 -21 -10 -16.2 -14.3 -25.9 -14.9 -33.5 l-0.5 -6.7 2.3 2.2 c1.3 1.2 6.7 7.6 11.9 14.2 11.8 14.8 36 38.9 43.5 43.3 12.4 7.4 21.8 10.1 41.3 12.2 25 2.6 35.2 7.2 48 21.2 9.5 10.5 22.5 40.5 22.5 51.9 0 5.5 -2.4 11.1 -6.2 14.7 l-2.4 2.2 -5.2 -6.7z"/>
  <path d="M1396.8 635.9 c-6.5 -8 -17.3 -27.2 -22.5 -39.9 -2.8 -6.9 -7.8 -21 -11.2 -31.4 l-6.2 -19 -0.9 -18.5 c-0.5 -10.2 -1.4 -23.2 -2.1 -28.8 -1.4 -11.8 -2 -9.9 10.7 -30.9 4.3 -7.2 10.8 -19 14.3 -26.2 l6.5 -13.2 11.5 11.3 c6.4 6.2 14.3 13.1 17.6 15.4 5.9 4 22.5 12.7 29.8 15.7 2.9 1.2 3.7 2 3.3 3.3 -2.9 9.5 -5.7 22.1 -6.6 30.1 -1.4 12 -6.5 34.5 -9.7 43.2 -1.4 3.6 -3.8 12 -5.4 18.7 -1.6 6.8 -3.8 14.5 -4.9 17.3 -1.1 2.7 -3.3 9.8 -4.9 15.7 -2.9 10.4 -11.1 32.8 -14.2 38.7 l-1.6 2.8 -3.5 -4.3z"/>
  <path d="M1435.2 413.5 c-3.5 -0.8 -9.3 -3 -12.8 -5 -3.8 -2.2 -7.4 -3.5 -8.5 -3.2 -3.7 1 -9.9 -9.2 -12.2 -19.8 -1.1 -5.5 -1.1 -5.8 1.1 -7.4 7 -4.9 22.2 -16.8 25.6 -20 5.5 -5.2 18.9 -22 22.5 -28.5 1.8 -3 4.4 -9.5 6 -14.3 4.1 -13.2 16.9 -32 27 -39.6 5.2 -4 14.3 -9.7 15.4 -9.7 0.3 0 -0.3 2.1 -1.3 4.8 -2.6 6.9 -3.3 13.8 -2 21.4 1.8 11.3 3.9 13.8 11.8 13.8 4.7 0 9.3 2.8 13.1 8 3.2 4.4 4.3 8.1 4.5 14.8 0.1 4 0.6 4.7 6.3 9.5 13.6 11.5 22 15.1 34 14.5 6.9 -0.4 9.3 -1 15.5 -4.1 11.6 -5.8 22.4 -14.4 24.9 -19.7 1.1 -2.5 2.6 -5.6 3.2 -6.9 2 -4.1 7.3 -8.5 12.5 -10.4 4.2 -1.4 5.3 -2.4 7 -6 3.5 -7.5 4.5 -12.1 4.5 -19.4 0 -5.6 0.3 -7 1.3 -6.3 2.6 2.2 10.6 15.3 14.5 23.7 2.2 4.8 5.6 12.1 7.5 16.1 3.9 8.2 6.6 19.2 9.9 40.2 3 19.2 5.1 24.5 12.1 31 l5.6 5 -2.6 4.4 c-4.1 7 -7.6 10.7 -9.5 10.1 -1 -0.3 -3.7 0.2 -6.1 1 -9.8 3.5 -20.9 1 -31.5 -7.1 -3.3 -2.5 -7.7 -5.4 -9.8 -6.5 -2 -1.1 -6.6 -4.6 -10.2 -7.8 -3.6 -3.3 -9.9 -8.5 -14 -11.6 -4.2 -3.1 -10.1 -8 -13.3 -10.9 -3.1 -2.9 -7.1 -6.1 -8.9 -7 -7.5 -3.8 -29.8 -4.3 -36.8 -0.9 -4.4 2.2 -19.9 12.8 -29 19.9 -15.9 12.3 -43.3 28.7 -54.1 32.4 -7.7 2.7 -15.8 3.2 -23.2 1.5z"/>
  <path d="M1462.9 139.3 c-12.7 -12.4 -16.3 -14.1 -26.4 -11.9 -13.5 2.8 -16.6 -1.8 -13 -19.4 2.2 -10.8 4.2 -12.4 15.1 -11.8 7.4 0.4 8.8 0.8 15 4.5 8.3 4.9 15.5 11.1 18.4 15.8 1.4 2.3 2.6 7 3.6 15 1.4 10.6 1.4 11.9 -0.1 14.1 -0.8 1.3 -2 2.4 -2.6 2.4 -0.6 0 -5.1 -3.9 -10 -8.7z"/>
  <path d="M1608.9 141.3 c-1 -1.1 -1.5 -5.2 -1.7 -12.5 -0.4 -10.1 -0.2 -11.3 2.2 -16.2 2.5 -5.1 4.3 -6.7 12.8 -11.9 3.8 -2.4 12.4 -2.2 16.5 0.3 1.8 1 4 3.2 4.9 4.7 1 1.5 3.5 4.7 5.6 7 4.5 5 4.8 8.3 1.3 11.8 -2.1 2.2 -3.3 2.5 -10 2.5 -11.2 0 -20.8 4.8 -24.6 12.2 -2.1 4.1 -4.7 4.9 -7 2.1z"/>
 </g>
 <g fill="#ffffff">
  <path d="M1402.7 191.2 c-1 -1 -1.7 -3 -1.7 -4.5 0 -1.9 -0.8 -3.1 -3 -4.2 -2.5 -1.3 -3 -2.2 -3 -5 0 -5.9 5.4 -7.9 10.3 -3.7 1.9 1.6 2.3 5.7 0.7 6.7 -1.8 1.1 -1.1 7.4 1 9.2 1.1 1 2 2.1 2 2.5 0 1.5 -4.7 0.8 -6.3 -1z"/>
  <path d="M1642.4 188.5 c-0.7 -1.9 -1.4 -4.6 -1.4 -6 0 -1.4 -0.9 -3.4 -2 -4.5 -2.6 -2.6 -2.5 -5.5 0.1 -8.1 2.5 -2.5 4.6 -2.2 7.1 1.2 1.8 2.4 1.9 2.8 0.4 6.4 -2.3 5.3 -2 7.2 1.4 10.7 1.7 1.6 3 3.1 3 3.4 0 0.2 -1.6 0.4 -3.6 0.4 -3.1 0 -3.7 -0.4 -5 -3.5z"/>
 </g>
</svg>